<svg width="16" height="16" fill="none" xmlns="http://www.w3.org/2000/svg">
  <path fill="#87939a" d="m.40406102 3.0708637.59598998-.59599h4.4547727l1.1263201 1.1263201h5.6214992l.238436.412984v9.1582112l-.265868.460497H.76771593l-.30095908-.300959Z"/>
  <path fill="#c5c5c5" d="m.5 2-.5.5v11l.5.5h12.015625L13 13.628906l2.634766-6.9999998L15.150391 6H13V3.5l-.5-.5H6.7070312l-.8535156-.8535156L5.5 2ZM1 3h4.2929688l.8535156.8535156L6.5 4H12v2H8.5l-.3535156.1464844L7.2929688 7H2.5l-.4746094.3417969L1 10.417969Z" />
</svg>
