<svg width="16" height="16" fill="none" xmlns="http://www.w3.org/2000/svg">
  <path fill="#c5c5c5" fill-rule="evenodd" clip-rule="evenodd" d="M4 1 3 2v12l1 1h9l1-1V5l-.2929-.70711-3-3L10 1H4Zm0 13V2h5v4h4v8H4Zm9-9-3-3v3h3Z" />
  <path fill="#bd8e3e" d="M4 2v12h9V6H9V2Z"/>
  <path fill="#bd8e3e" d="m13 5-3-3v3z"/>
  <path fill="#000" opacity="0.3" d="M13 6H9V2l-1.1758417.00157-.00107 5.1811024 5.1904187-.00157z"/>
  <path fill="#000" opacity="0.5" d="M 10.878321,9.0812357 9.2500416,10.709515 10.872106,12.33158 10.138759,13.064926 8.5166948,11.442862 6.8884152,13.071141 6.1488534,12.331579 7.7771329,10.7033 6.1550686,9.0812356 6.8884155,8.3478888 8.5104797,9.9699531 10.138759,8.3416739 Z" />
</svg>
