<svg width="16" height="16" fill="none" xmlns="http://www.w3.org/2000/svg">
  <style>
    .text {
      font-size: 9px;
      font-family: Arial, Helvetica, sans-serif;
      fill: #c5c5c5;
    }
  </style>
  <defs>
    <linearGradient id="grad" x1="0" x2="0" y1="0" y2="1">
      <stop offset="0%" stop-color="#75507b" />
      <stop offset="80%" stop-color="#ed028f" />
    </linearGradient>
  </defs>
  <path fill="#c5c5c5" fill-rule="evenodd" clip-rule="evenodd" d="M4 1 3 2v12l1 1h9l1-1V5l-.2929-.70711-3-3L10 1H4Zm0 13V2h5v4h4v8H4Zm9-9-3-3v3h3Z" />
  <path d="M4 2v12h9V6H9V2Z" fill="url(#grad)"/>
  <path fill="#75507b" d="m13 5-3-3v3z"/>
  <path fill="#000" opacity="0.3" d="M13 6H9V2l-1.1758417.00157-.00107 5.1811024 5.1904187-.00157z"/>
  <text x="5" y="12" class="text">A</text>
</svg>
