<?xml version="1.0" encoding="UTF-8" standalone="no"?>
<svg
   width="16"
   height="16"
   viewBox="0 0 16 16"
   fill="none"
   version="1.1"
   id="svg826"
   sodipodi:docname="document-labelled-alt-dark-rendered.svg"
   inkscape:version="1.1.1 (3bf5ae0d25, 2021-09-20)"
   xmlns:inkscape="http://www.inkscape.org/namespaces/inkscape"
   xmlns:sodipodi="http://sodipodi.sourceforge.net/DTD/sodipodi-0.dtd"
   xmlns="http://www.w3.org/2000/svg"
   xmlns:svg="http://www.w3.org/2000/svg">
  <defs
     id="defs830" />
  <sodipodi:namedview
     id="namedview828"
     pagecolor="#ffffff"
     bordercolor="#666666"
     borderopacity="1.0"
     inkscape:pageshadow="2"
     inkscape:pageopacity="0.0"
     inkscape:pagecheckerboard="0"
     showgrid="false"
     inkscape:zoom="30.317203"
     inkscape:cx="7.6194363"
     inkscape:cy="6.9597449"
     inkscape:window-width="1600"
     inkscape:window-height="887"
     inkscape:window-x="-8"
     inkscape:window-y="32"
     inkscape:window-maximized="1"
     inkscape:current-layer="svg826" />
  <path
     fill-rule="evenodd"
     clip-rule="evenodd"
     d="M4 1L3 2V14L4 15H13L14 14V5L13.7071 4.29289L10.7071 1.29289L10 1H4ZM4 14V2L9 2V6H13V14H4ZM13 5L10 2V5L13 5Z"
     fill="#C5C5C5"
     id="path824"
     inkscape:label="document" />
  <path
     style="display:inline;fill:#bd8e3e;fill-opacity:1;stroke:none;stroke-width:1px;stroke-linecap:butt;stroke-linejoin:miter;stroke-opacity:1"
     d="M 4,14 V 2 h 5 v 4 h 4 v 8 z"
     id="path36141"
     sodipodi:nodetypes="ccccccc"
     inkscape:label="bg" />
  <g
     aria-label="JSX"
     id="text46508"
     style="font-size:6px;line-height:0.95;text-align:center;letter-spacing:-0.64px;word-spacing:0px;text-anchor:middle;display:inline;fill:#000000">
    <path
       d="m 5.6165519,13.430753 q -0.414,0 -0.702,-0.168 -0.282,-0.168 -0.468,-0.498 l 0.48,-0.354 q 0.12,0.216 0.276,0.318 0.156,0.096 0.336,0.096 0.276,0 0.414,-0.168 0.138,-0.168 0.138,-0.588 V 9.4347532 h 0.696 v 2.6939998 q 0,0.27 -0.066,0.51 -0.066,0.234 -0.21,0.414 -0.144,0.174 -0.366,0.276 -0.222,0.102 -0.528,0.102 z"
       style="font-weight:600;font-family:'Source Sans Pro';-inkscape-font-specification:'Source Sans Pro Semi-Bold'"
       id="path46510" />
    <path
       d="m 8.2705489,13.430753 q -0.396,0 -0.768,-0.15 -0.366,-0.15 -0.648,-0.426 l 0.408,-0.474 q 0.21,0.198 0.48,0.324 0.27,0.12 0.54,0.12 0.336,0 0.51,-0.138 0.174,-0.138 0.174,-0.366 0,-0.12 -0.048,-0.204 -0.042,-0.084 -0.126,-0.144 -0.078,-0.066 -0.192,-0.12 -0.108,-0.054 -0.24,-0.108 l -0.54,-0.234 q -0.144,-0.06 -0.288,-0.15 -0.138,-0.09 -0.252,-0.216 -0.114,-0.126 -0.186,-0.294 -0.066,-0.168 -0.066,-0.384 0,-0.234 0.096,-0.432 0.102,-0.2039998 0.276,-0.3539998 0.174,-0.15 0.414,-0.234 0.246,-0.084 0.534,-0.084 0.342,0 0.66,0.138 0.318,0.132 0.546,0.36 l -0.354,0.4439998 q -0.192,-0.156 -0.396,-0.246 -0.204,-0.09 -0.456,-0.09 -0.282,0 -0.45,0.126 -0.168,0.12 -0.168,0.336 0,0.114 0.048,0.198 0.054,0.078 0.138,0.144 0.09,0.06 0.204,0.114 0.114,0.048 0.234,0.096 l 0.534,0.222 q 0.174,0.072 0.318,0.168 0.144,0.096 0.246,0.222 0.108,0.126 0.168,0.294 0.06,0.162 0.06,0.378 0,0.24 -0.096,0.45 -0.096,0.21 -0.282,0.372 -0.18,0.156 -0.444,0.252 -0.258,0.09 -0.588,0.09 z"
       style="font-weight:600;font-family:'Source Sans Pro';-inkscape-font-specification:'Source Sans Pro Semi-Bold'"
       id="path46512" />
    <path
       d="m 10.450538,11.336753 -1.044,-1.9019998 h 0.774 l 0.432,0.8699998 q 0.072,0.138 0.138,0.282 0.072,0.144 0.162,0.318 h 0.024 q 0.072,-0.174 0.132,-0.318 0.066,-0.144 0.132,-0.282 l 0.414,-0.8699998 h 0.738 l -1.044,1.9319998 1.116,1.992 h -0.774 l -0.48,-0.924 q -0.078,-0.156 -0.156,-0.306 -0.072,-0.156 -0.162,-0.336 h -0.024 q -0.078,0.18 -0.15,0.336 -0.066,0.15 -0.138,0.306 l -0.468,0.924 h -0.738 z"
       style="font-weight:600;font-family:'Source Sans Pro';-inkscape-font-specification:'Source Sans Pro Semi-Bold'"
       id="path46514" />
  </g>
</svg>
