<?xml version="1.0" encoding="UTF-8" standalone="no"?>
<svg
   width="16"
   height="16"
   viewBox="0 0 16 16"
   fill="none"
   version="1.1"
   id="svg826"
   sodipodi:docname="document-labelled-dark.svg"
   inkscape:version="1.1.1 (3bf5ae0d25, 2021-09-20)"
   xmlns:inkscape="http://www.inkscape.org/namespaces/inkscape"
   xmlns:sodipodi="http://sodipodi.sourceforge.net/DTD/sodipodi-0.dtd"
   xmlns="http://www.w3.org/2000/svg"
   xmlns:svg="http://www.w3.org/2000/svg">
  <defs
     id="defs830" />
  <sodipodi:namedview
     id="namedview828"
     pagecolor="#ffffff"
     bordercolor="#666666"
     borderopacity="1.0"
     inkscape:pageshadow="2"
     inkscape:pageopacity="0.0"
     inkscape:pagecheckerboard="0"
     showgrid="false"
     inkscape:zoom="30.317203"
     inkscape:cx="3.2324882"
     inkscape:cy="10.324171"
     inkscape:window-width="1600"
     inkscape:window-height="887"
     inkscape:window-x="-8"
     inkscape:window-y="32"
     inkscape:window-maximized="1"
     inkscape:current-layer="svg826" />
  <path
     fill-rule="evenodd"
     clip-rule="evenodd"
     d="M4 1L3 2V14L4 15H13L14 14V5L13.7071 4.29289L10.7071 1.29289L10 1H4ZM4 14V2L9 2V6H13V14H4ZM13 5L10 2V5L13 5Z"
     fill="#C5C5C5"
     id="path824"
     inkscape:label="document" />
  <rect
     style="opacity:0.5;vector-effect:non-scaling-stroke;fill:#000000;fill-opacity:1;stroke:none;stroke-width:0.002;stroke-linecap:round;stroke-linejoin:round;stroke-miterlimit:5;stroke-opacity:1;-inkscape-stroke:hairline"
     id="rect5376"
     width="14.553936"
     height="5.9008746"
     x="1.0962099"
     y="8.8688049"
     inkscape:label="shadow" />
  <rect
     style="display:inline;vector-effect:non-scaling-stroke;fill:#bd8e3e;fill-opacity:1;stroke:none;stroke-width:0.002;stroke-linecap:round;stroke-linejoin:round;stroke-miterlimit:5;stroke-opacity:1;-inkscape-stroke:hairline"
     id="rect5480"
     width="14.553936"
     height="5.9008746"
     x="1.0962099"
     y="9.7492714"
     inkscape:label="label" />
  <text
     xml:space="preserve"
     style="font-style:normal;font-weight:normal;font-size:6px;line-height:8px;font-family:sans-serif;letter-spacing:0px;word-spacing:0px;display:none;fill:#000000;fill-opacity:1;stroke:none"
     x="2.0991251"
     y="14.699536"
     id="text9772"
     inkscape:label="orig text"><tspan
       sodipodi:role="line"
       id="tspan9770"
       x="2.0991251"
       y="14.699536"
       style="font-style:normal;font-variant:normal;font-weight:600;font-stretch:normal;font-size:6px;font-family:'Source Sans Pro';-inkscape-font-specification:'Source Sans Pro Semi-Bold'">JS</tspan></text>
  <g
     aria-label="JS"
     id="text35593"
     style="font-size:6px;line-height:8px;letter-spacing:0px;word-spacing:0px;display:none;fill:#000000"
     inkscape:label="label:js">
    <path
       d="m 3.4131251,14.771536 q -0.414,0 -0.702,-0.168 -0.282,-0.168 -0.468,-0.498 l 0.48,-0.354 q 0.12,0.216 0.276,0.318 0.156,0.096 0.336,0.096 0.276,0 0.414,-0.168 0.138,-0.168 0.138,-0.588 v -2.634 h 0.696 v 2.694 q 0,0.27 -0.066,0.51 -0.066,0.234 -0.21,0.414 -0.144,0.174 -0.366,0.276 -0.222,0.102 -0.528,0.102 z"
       style="font-weight:600;font-family:'Source Sans Pro';-inkscape-font-specification:'Source Sans Pro Semi-Bold';display:inline"
       id="path35595" />
    <path
       d="m 6.707122,14.771536 q -0.396,0 -0.768,-0.15 -0.366,-0.15 -0.648,-0.426 l 0.408,-0.474 q 0.21,0.198 0.48,0.324 0.27,0.12 0.54,0.12 0.336,0 0.51,-0.138 0.174,-0.138 0.174,-0.366 0,-0.12 -0.048,-0.204 -0.042,-0.084 -0.126,-0.144 -0.078,-0.066 -0.192,-0.12 -0.108,-0.054 -0.24,-0.108 l -0.54,-0.234 q -0.144,-0.06 -0.288,-0.15 -0.138,-0.09 -0.252,-0.216 -0.114,-0.126 -0.186,-0.294 -0.066,-0.168 -0.066,-0.384 0,-0.234 0.096,-0.432 0.102,-0.204 0.276,-0.354 0.174,-0.15 0.414,-0.234 0.246,-0.084 0.534,-0.084 0.342,0 0.66,0.138 0.318,0.132 0.546,0.36 l -0.354,0.444 q -0.192,-0.156 -0.396,-0.246 -0.204,-0.09 -0.456,-0.09 -0.282,0 -0.45,0.126 -0.168,0.12 -0.168,0.336 0,0.114 0.048,0.198 0.054,0.078 0.138,0.144 0.09,0.06 0.204,0.114 0.114,0.048 0.234,0.096 l 0.534,0.222 q 0.174,0.072 0.318,0.168 0.144,0.096 0.246,0.222 0.108,0.126 0.168,0.294 0.06,0.162 0.06,0.378 0,0.24 -0.096,0.45 -0.096,0.21 -0.282,0.372 -0.18,0.156 -0.444,0.252 -0.258,0.09 -0.588,0.09 z"
       style="font-weight:600;font-family:'Source Sans Pro';-inkscape-font-specification:'Source Sans Pro Semi-Bold';display:inline"
       id="path35597" />
  </g>
  <g
     aria-label="JSX"
     id="text47061"
     style="font-size:6px;line-height:8px;letter-spacing:0px;word-spacing:0px;display:none;fill:#000000"
     inkscape:label="label:jsx">
    <path
       d="m 3.4131251,14.771536 q -0.414,0 -0.702,-0.168 -0.282,-0.168 -0.468,-0.498 l 0.48,-0.354 q 0.12,0.216 0.276,0.318 0.156,0.096 0.336,0.096 0.276,0 0.414,-0.168 0.138,-0.168 0.138,-0.588 v -2.634 h 0.696 v 2.694 q 0,0.27 -0.066,0.51 -0.066,0.234 -0.21,0.414 -0.144,0.174 -0.366,0.276 -0.222,0.102 -0.528,0.102 z"
       style="font-weight:600;font-family:'Source Sans Pro';-inkscape-font-specification:'Source Sans Pro Semi-Bold'"
       id="path47713" />
    <path
       d="m 6.707122,14.771536 q -0.396,0 -0.768,-0.15 -0.366,-0.15 -0.648,-0.426 l 0.408,-0.474 q 0.21,0.198 0.48,0.324 0.27,0.12 0.54,0.12 0.336,0 0.51,-0.138 0.174,-0.138 0.174,-0.366 0,-0.12 -0.048,-0.204 -0.042,-0.084 -0.126,-0.144 -0.078,-0.066 -0.192,-0.12 -0.108,-0.054 -0.24,-0.108 l -0.54,-0.234 q -0.144,-0.06 -0.288,-0.15 -0.138,-0.09 -0.252,-0.216 -0.114,-0.126 -0.186,-0.294 -0.066,-0.168 -0.066,-0.384 0,-0.234 0.096,-0.432 0.102,-0.204 0.276,-0.354 0.174,-0.15 0.414,-0.234 0.246,-0.084 0.534,-0.084 0.342,0 0.66,0.138 0.318,0.132 0.546,0.36 l -0.354,0.444 q -0.192,-0.156 -0.396,-0.246 -0.204,-0.09 -0.456,-0.09 -0.282,0 -0.45,0.126 -0.168,0.12 -0.168,0.336 0,0.114 0.048,0.198 0.054,0.078 0.138,0.144 0.09,0.06 0.204,0.114 0.114,0.048 0.234,0.096 l 0.534,0.222 q 0.174,0.072 0.318,0.168 0.144,0.096 0.246,0.222 0.108,0.126 0.168,0.294 0.06,0.162 0.06,0.378 0,0.24 -0.096,0.45 -0.096,0.21 -0.282,0.372 -0.18,0.156 -0.444,0.252 -0.258,0.09 -0.588,0.09 z"
       style="font-weight:600;font-family:'Source Sans Pro';-inkscape-font-specification:'Source Sans Pro Semi-Bold'"
       id="path47715" />
    <path
       d="m 9.527111,12.677536 -1.044,-1.902 h 0.774 l 0.432,0.87 q 0.072,0.138 0.138,0.282 0.072,0.144 0.162,0.318 h 0.024 q 0.072,-0.174 0.132,-0.318 0.066,-0.144 0.132,-0.282 l 0.414,-0.87 h 0.738 l -1.044,1.932 1.116,1.992 h -0.774 l -0.48,-0.924 q -0.078,-0.156 -0.156,-0.306 -0.072,-0.156 -0.162,-0.336 h -0.024 q -0.078,0.18 -0.15,0.336 -0.066,0.15 -0.138,0.306 l -0.468,0.924 h -0.738 z"
       style="font-weight:600;font-family:'Source Sans Pro';-inkscape-font-specification:'Source Sans Pro Semi-Bold'"
       id="path47717" />
  </g>
  <g
     aria-label="TS"
     id="text47740"
     style="font-size:6px;line-height:8px;letter-spacing:0px;word-spacing:0px;display:none;fill:#000000"
     inkscape:label="label:ts">
    <path
       d="m 3.3891251,11.363536 h -1.134 v -0.588 h 2.964 v 0.588 h -1.134 v 3.336 h -0.696 z"
       style="font-weight:600;font-family:'Source Sans Pro';-inkscape-font-specification:'Source Sans Pro Semi-Bold'"
       id="path48220" />
    <path
       d="m 6.8271133,14.771536 q -0.396,0 -0.768,-0.15 -0.366,-0.15 -0.648,-0.426 l 0.408,-0.474 q 0.21,0.198 0.48,0.324 0.27,0.12 0.54,0.12 0.336,0 0.51,-0.138 0.174,-0.138 0.174,-0.366 0,-0.12 -0.048,-0.204 -0.042,-0.084 -0.126,-0.144 -0.078,-0.066 -0.192,-0.12 -0.108,-0.054 -0.24,-0.108 l -0.54,-0.234 q -0.144,-0.06 -0.288,-0.15 -0.138,-0.09 -0.252,-0.216 -0.114,-0.126 -0.186,-0.294 -0.066,-0.168 -0.066,-0.384 0,-0.234 0.096,-0.432 0.102,-0.204 0.276,-0.354 0.174,-0.15 0.414,-0.234 0.246,-0.084 0.534,-0.084 0.342,0 0.66,0.138 0.318,0.132 0.546,0.36 l -0.354,0.444 q -0.192,-0.156 -0.396,-0.246 -0.204,-0.09 -0.456,-0.09 -0.282,0 -0.45,0.126 -0.168,0.12 -0.168,0.336 0,0.114 0.048,0.198 0.054,0.078 0.138,0.144 0.09,0.06 0.204,0.114 0.114,0.048 0.234,0.096 l 0.534,0.222 q 0.174,0.072 0.318,0.168 0.144,0.096 0.246,0.222 0.108,0.126 0.168,0.294 0.06,0.162 0.06,0.378 0,0.24 -0.096,0.45 -0.096,0.21 -0.282,0.372 -0.18,0.156 -0.444,0.252 -0.258,0.09 -0.588,0.09 z"
       style="font-weight:600;font-family:'Source Sans Pro';-inkscape-font-specification:'Source Sans Pro Semi-Bold'"
       id="path48222" />
  </g>
  <g
     aria-label="TSX"
     id="text48245"
     style="font-size:6px;line-height:8px;letter-spacing:0px;word-spacing:0px;display:none;fill:#000000"
     inkscape:label="label:tsx">
    <path
       d="m 3.3891251,11.363536 h -1.134 v -0.588 h 2.964 v 0.588 h -1.134 v 3.336 h -0.696 z"
       style="font-weight:600;font-family:'Source Sans Pro';-inkscape-font-specification:'Source Sans Pro Semi-Bold'"
       id="path48691" />
    <path
       d="m 6.8271133,14.771536 q -0.396,0 -0.768,-0.15 -0.366,-0.15 -0.648,-0.426 l 0.408,-0.474 q 0.21,0.198 0.48,0.324 0.27,0.12 0.54,0.12 0.336,0 0.51,-0.138 0.174,-0.138 0.174,-0.366 0,-0.12 -0.048,-0.204 -0.042,-0.084 -0.126,-0.144 -0.078,-0.066 -0.192,-0.12 -0.108,-0.054 -0.24,-0.108 l -0.54,-0.234 q -0.144,-0.06 -0.288,-0.15 -0.138,-0.09 -0.252,-0.216 -0.114,-0.126 -0.186,-0.294 -0.066,-0.168 -0.066,-0.384 0,-0.234 0.096,-0.432 0.102,-0.204 0.276,-0.354 0.174,-0.15 0.414,-0.234 0.246,-0.084 0.534,-0.084 0.342,0 0.66,0.138 0.318,0.132 0.546,0.36 l -0.354,0.444 q -0.192,-0.156 -0.396,-0.246 -0.204,-0.09 -0.456,-0.09 -0.282,0 -0.45,0.126 -0.168,0.12 -0.168,0.336 0,0.114 0.048,0.198 0.054,0.078 0.138,0.144 0.09,0.06 0.204,0.114 0.114,0.048 0.234,0.096 l 0.534,0.222 q 0.174,0.072 0.318,0.168 0.144,0.096 0.246,0.222 0.108,0.126 0.168,0.294 0.06,0.162 0.06,0.378 0,0.24 -0.096,0.45 -0.096,0.21 -0.282,0.372 -0.18,0.156 -0.444,0.252 -0.258,0.09 -0.588,0.09 z"
       style="font-weight:600;font-family:'Source Sans Pro';-inkscape-font-specification:'Source Sans Pro Semi-Bold'"
       id="path48693" />
    <path
       d="m 9.6471024,12.677536 -1.044,-1.902 h 0.774 l 0.432,0.87 q 0.072,0.138 0.138,0.282 0.072,0.144 0.1619996,0.318 h 0.024 q 0.072,-0.174 0.132,-0.318 0.066,-0.144 0.132,-0.282 l 0.414,-0.87 h 0.738 l -1.044,1.932 1.116,1.992 h -0.774 l -0.48,-0.924 q -0.078,-0.156 -0.156,-0.306 -0.072,-0.156 -0.162,-0.336 h -0.024 q -0.078,0.18 -0.1499996,0.336 -0.066,0.15 -0.138,0.306 l -0.468,0.924 h -0.738 z"
       style="font-weight:600;font-family:'Source Sans Pro';-inkscape-font-specification:'Source Sans Pro Semi-Bold'"
       id="path48695" />
  </g>
  <g
     aria-label="CSS"
     id="text48718"
     style="font-size:6px;line-height:8px;letter-spacing:0px;word-spacing:0px;display:none;fill:#000000"
     inkscape:label="label:css">
    <path
       d="m 4.1631251,14.771536 q -0.372,0 -0.696,-0.132 -0.324,-0.132 -0.564,-0.39 -0.234,-0.258 -0.372,-0.636 -0.138,-0.378 -0.138,-0.864 0,-0.48 0.138,-0.858 0.144,-0.384 0.384,-0.648 0.246,-0.264 0.57,-0.402 0.33,-0.138 0.702,-0.138 0.372,0 0.66,0.15 0.288,0.15 0.474,0.348 l -0.372,0.45 q -0.156,-0.156 -0.336,-0.246 -0.18,-0.096 -0.408,-0.096 -0.24,0 -0.444,0.102 -0.198,0.096 -0.348,0.282 -0.144,0.18 -0.228,0.444 -0.078,0.264 -0.078,0.594 0,0.672 0.288,1.056 0.294,0.378 0.792,0.378 0.264,0 0.468,-0.108 0.204,-0.114 0.372,-0.294 l 0.372,0.438 q -0.24,0.276 -0.552,0.426 -0.306,0.144 -0.684,0.144 z"
       style="font-weight:600;font-family:'Source Sans Pro';-inkscape-font-specification:'Source Sans Pro Semi-Bold'"
       id="path50014" />
    <path
       d="m 7.0431091,14.771536 q -0.396,0 -0.768,-0.15 -0.366,-0.15 -0.648,-0.426 l 0.408,-0.474 q 0.21,0.198 0.48,0.324 0.27,0.12 0.54,0.12 0.336,0 0.51,-0.138 0.174,-0.138 0.174,-0.366 0,-0.12 -0.048,-0.204 -0.042,-0.084 -0.126,-0.144 -0.078,-0.066 -0.192,-0.12 -0.108,-0.054 -0.24,-0.108 l -0.54,-0.234 q -0.144,-0.06 -0.288,-0.15 -0.138,-0.09 -0.252,-0.216 -0.114,-0.126 -0.186,-0.294 -0.066,-0.168 -0.066,-0.384 0,-0.234 0.096,-0.432 0.102,-0.204 0.276,-0.354 0.174,-0.15 0.414,-0.234 0.246,-0.084 0.534,-0.084 0.342,0 0.66,0.138 0.318,0.132 0.546,0.36 l -0.354,0.444 q -0.192,-0.156 -0.396,-0.246 -0.204,-0.09 -0.456,-0.09 -0.282,0 -0.45,0.126 -0.168,0.12 -0.168,0.336 0,0.114 0.048,0.198 0.054,0.078 0.138,0.144 0.09,0.06 0.204,0.114 0.114,0.048 0.234,0.096 l 0.534,0.222 q 0.174,0.072 0.318,0.168 0.144,0.096 0.246,0.222 0.108,0.126 0.168,0.294 0.06,0.162 0.06,0.378 0,0.24 -0.096,0.45 -0.096,0.21 -0.282,0.372 -0.18,0.156 -0.444,0.252 -0.258,0.09 -0.588,0.09 z"
       style="font-weight:600;font-family:'Source Sans Pro';-inkscape-font-specification:'Source Sans Pro Semi-Bold'"
       id="path50016" />
    <path
       d="m 10.217094,14.771536 q -0.3960003,0 -0.7680003,-0.15 -0.366,-0.15 -0.648,-0.426 l 0.408,-0.474 q 0.21,0.198 0.48,0.324 0.27,0.12 0.5400003,0.12 0.336,0 0.51,-0.138 0.174,-0.138 0.174,-0.366 0,-0.12 -0.048,-0.204 -0.042,-0.084 -0.126,-0.144 -0.078,-0.066 -0.192,-0.12 -0.108,-0.054 -0.24,-0.108 l -0.5400003,-0.234 q -0.144,-0.06 -0.288,-0.15 -0.138,-0.09 -0.252,-0.216 -0.114,-0.126 -0.186,-0.294 -0.066,-0.168 -0.066,-0.384 0,-0.234 0.096,-0.432 0.102,-0.204 0.276,-0.354 0.174,-0.15 0.414,-0.234 0.2460003,-0.084 0.5340003,-0.084 0.342,0 0.66,0.138 0.318,0.132 0.546,0.36 l -0.354,0.444 q -0.192,-0.156 -0.396,-0.246 -0.204,-0.09 -0.456,-0.09 -0.282,0 -0.4500003,0.126 -0.168,0.12 -0.168,0.336 0,0.114 0.048,0.198 0.054,0.078 0.138,0.144 0.09,0.06 0.2040003,0.114 0.114,0.048 0.234,0.096 l 0.534,0.222 q 0.174,0.072 0.318,0.168 0.144,0.096 0.246,0.222 0.108,0.126 0.168,0.294 0.06,0.162 0.06,0.378 0,0.24 -0.096,0.45 -0.096,0.21 -0.282,0.372 -0.18,0.156 -0.444,0.252 -0.258,0.09 -0.588,0.09 z"
       style="font-weight:600;font-family:'Source Sans Pro';-inkscape-font-specification:'Source Sans Pro Semi-Bold'"
       id="path50018" />
  </g>
  <g
     aria-label="SCSS"
     id="text50041"
     style="font-size:6px;line-height:8px;letter-spacing:0px;word-spacing:0px;display:none;fill:#000000"
     inkscape:label="label:scss">
    <path
       d="m 3.5782023,14.771536 q -0.396,0 -0.768,-0.15 -0.366,-0.15 -0.648,-0.426 l 0.408,-0.474 q 0.21,0.198 0.48,0.324 0.27,0.12 0.54,0.12 0.336,0 0.51,-0.138 0.174,-0.138 0.174,-0.366 0,-0.12 -0.048,-0.204 -0.042,-0.084 -0.126,-0.144 -0.078,-0.066 -0.192,-0.12 -0.108,-0.054 -0.24,-0.108 l -0.54,-0.234 q -0.144,-0.06 -0.288,-0.15 -0.138,-0.09 -0.252,-0.216 -0.114,-0.126 -0.186,-0.294 -0.066,-0.168 -0.066,-0.384 0,-0.234 0.096,-0.432 0.102,-0.204 0.276,-0.354 0.174,-0.15 0.414,-0.234 0.246,-0.084 0.534,-0.084 0.342,0 0.66,0.138 0.318,0.132 0.546,0.36 l -0.354,0.444 q -0.192,-0.156 -0.396,-0.246 -0.204,-0.09 -0.456,-0.09 -0.282,0 -0.45,0.126 -0.168,0.12 -0.168,0.336 0,0.114 0.048,0.198 0.054,0.078 0.138,0.144 0.09,0.06 0.204,0.114 0.114,0.048 0.234,0.096 l 0.534,0.222 q 0.174,0.072 0.318,0.168 0.144,0.096 0.246,0.222 0.108,0.126 0.168,0.294 0.06,0.162 0.06,0.378 0,0.24 -0.096,0.45 -0.096,0.21 -0.282,0.372 -0.18,0.156 -0.444,0.252 -0.258,0.09 -0.588,0.09 z"
       id="path62951" />
    <path
       d="m 7.2681913,14.771536 q -0.372,0 -0.696,-0.132 -0.324,-0.132 -0.564,-0.39 -0.234,-0.258 -0.372,-0.636 -0.138,-0.378 -0.138,-0.864 0,-0.48 0.138,-0.858 0.144,-0.384 0.384,-0.648 0.246,-0.264 0.57,-0.402 0.33,-0.138 0.702,-0.138 0.372,0 0.66,0.15 0.288,0.15 0.474,0.348 l -0.372,0.45 q -0.156,-0.156 -0.336,-0.246 -0.18,-0.096 -0.408,-0.096 -0.24,0 -0.444,0.102 -0.198,0.096 -0.348,0.282 -0.144,0.18 -0.228,0.444 -0.078,0.264 -0.078,0.594 0,0.672 0.288,1.056 0.294,0.378 0.792,0.378 0.264,0 0.468,-0.108 0.204,-0.114 0.372,-0.294 l 0.372,0.438 q -0.24,0.276 -0.552,0.426 -0.306,0.144 -0.684,0.144 z"
       style="font-weight:600;font-family:'Source Sans Pro';-inkscape-font-specification:'Source Sans Pro Semi-Bold'"
       id="path62953" />
    <path
       d="m 10.148175,14.771536 q -0.3959997,0 -0.7679997,-0.15 -0.366,-0.15 -0.648,-0.426 l 0.408,-0.474 q 0.21,0.198 0.48,0.324 0.27,0.12 0.5399997,0.12 0.336,0 0.51,-0.138 0.174,-0.138 0.174,-0.366 0,-0.12 -0.048,-0.204 -0.042,-0.084 -0.126,-0.144 -0.078,-0.066 -0.192,-0.12 -0.108,-0.054 -0.24,-0.108 l -0.5399997,-0.234 q -0.144,-0.06 -0.288,-0.15 -0.138,-0.09 -0.252,-0.216 -0.114,-0.126 -0.186,-0.294 -0.066,-0.168 -0.066,-0.384 0,-0.234 0.096,-0.432 0.102,-0.204 0.276,-0.354 0.174,-0.15 0.414,-0.234 0.246,-0.084 0.5339997,-0.084 0.342,0 0.66,0.138 0.318,0.132 0.546,0.36 l -0.354,0.444 q -0.192,-0.156 -0.396,-0.246 -0.204,-0.09 -0.456,-0.09 -0.2819997,0 -0.4499997,0.126 -0.168,0.12 -0.168,0.336 0,0.114 0.048,0.198 0.054,0.078 0.138,0.144 0.09,0.06 0.204,0.114 0.1139997,0.048 0.2339997,0.096 l 0.534,0.222 q 0.174,0.072 0.318,0.168 0.144,0.096 0.246,0.222 0.108,0.126 0.168,0.294 0.06,0.162 0.06,0.378 0,0.24 -0.096,0.45 -0.096,0.21 -0.282,0.372 -0.18,0.156 -0.444,0.252 -0.258,0.09 -0.588,0.09 z"
       style="font-weight:600;font-family:'Source Sans Pro';-inkscape-font-specification:'Source Sans Pro Semi-Bold'"
       id="path62955" />
    <path
       d="m 13.32216,14.771536 q -0.396,0 -0.768,-0.15 -0.366,-0.15 -0.648,-0.426 l 0.408,-0.474 q 0.21,0.198 0.48,0.324 0.27,0.12 0.54,0.12 0.336,0 0.51,-0.138 0.174,-0.138 0.174,-0.366 0,-0.12 -0.048,-0.204 -0.042,-0.084 -0.126,-0.144 -0.078,-0.066 -0.192,-0.12 -0.108,-0.054 -0.24,-0.108 l -0.54,-0.234 q -0.144,-0.06 -0.288,-0.15 -0.138,-0.09 -0.252,-0.216 -0.114,-0.126 -0.186,-0.294 -0.066,-0.168 -0.066,-0.384 0,-0.234 0.096,-0.432 0.102,-0.204 0.276,-0.354 0.174,-0.15 0.414,-0.234 0.246,-0.084 0.534,-0.084 0.342,0 0.66,0.138 0.318,0.132 0.546,0.36 l -0.354,0.444 q -0.192,-0.156 -0.396,-0.246 -0.204,-0.09 -0.456,-0.09 -0.282,0 -0.45,0.126 -0.168,0.12 -0.168,0.336 0,0.114 0.048,0.198 0.054,0.078 0.138,0.144 0.09,0.06 0.204,0.114 0.114,0.048 0.234,0.096 l 0.534,0.222 q 0.174,0.072 0.318,0.168 0.144,0.096 0.246,0.222 0.108,0.126 0.168,0.294 0.06,0.162 0.06,0.378 0,0.24 -0.096,0.45 -0.096,0.21 -0.282,0.372 -0.18,0.156 -0.444,0.252 -0.258,0.09 -0.588,0.09 z"
       style="font-weight:600;font-family:'Source Sans Pro';-inkscape-font-specification:'Source Sans Pro Semi-Bold'"
       id="path62957" />
  </g>
  <g
     aria-label="MD"
     id="text62980"
     style="font-size:6px;line-height:8px;letter-spacing:0px;word-spacing:0px;display:none;fill:#000000"
     inkscape:label="label:md">
    <path
       d="m 2.5971251,10.775536 h 0.786 l 0.696,1.92 q 0.066,0.186 0.126,0.384 0.06,0.192 0.126,0.384 h 0.024 q 0.066,-0.192 0.12,-0.384 0.06,-0.198 0.126,-0.384 l 0.678,-1.92 h 0.792 v 3.924 h -0.642 v -1.794 q 0,-0.138 0.006,-0.3 0.012,-0.162 0.024,-0.324 0.012,-0.168 0.03,-0.324 0.018,-0.162 0.03,-0.3 h -0.024 l -0.318,0.912 -0.642,1.764 h -0.414 l -0.648,-1.764 -0.312,-0.912 h -0.024 q 0.012,0.138 0.024,0.3 0.018,0.156 0.03,0.324 0.018,0.162 0.024,0.324 0.012,0.162 0.012,0.3 v 1.794 h -0.63 z"
       style="font-weight:600;font-family:'Source Sans Pro';-inkscape-font-specification:'Source Sans Pro Semi-Bold'"
       id="path63406" />
    <path
       d="m 7.0671187,10.775536 h 1.05 q 0.9,0 1.404,0.486 0.5040003,0.486 0.5040003,1.458 0,0.486 -0.1320003,0.858 -0.126,0.372 -0.372,0.624 -0.24,0.246 -0.588,0.372 -0.342,0.126 -0.78,0.126 h -1.086 z m 1.002,3.36 q 0.6,0 0.918,-0.342 0.324,-0.348 0.324,-1.074 0,-0.72 -0.324,-1.05 -0.324,-0.33 -0.918,-0.33 h -0.306 v 2.796 z"
       style="font-weight:600;font-family:'Source Sans Pro';-inkscape-font-specification:'Source Sans Pro Semi-Bold'"
       id="path63408" />
  </g>
  <g
     aria-label="SVG"
     id="text63511"
     style="font-size:6px;line-height:8px;letter-spacing:0px;word-spacing:0px;display:none;fill:#000000"
     inkscape:label="label:svg">
    <path
       d="m 3.7431251,14.771536 q -0.396,0 -0.768,-0.15 -0.366,-0.15 -0.648,-0.426 l 0.408,-0.474 q 0.21,0.198 0.48,0.324 0.27,0.12 0.54,0.12 0.336,0 0.51,-0.138 0.174,-0.138 0.174,-0.366 0,-0.12 -0.048,-0.204 -0.042,-0.084 -0.126,-0.144 -0.078,-0.066 -0.192,-0.12 -0.108,-0.054 -0.24,-0.108 l -0.54,-0.234 q -0.144,-0.06 -0.288,-0.15 -0.138,-0.09 -0.252,-0.216 -0.114,-0.126 -0.186,-0.294 -0.066,-0.168 -0.066,-0.384 0,-0.234 0.096,-0.432 0.102,-0.204 0.276,-0.354 0.174,-0.15 0.414,-0.234 0.246,-0.084 0.534,-0.084 0.342,0 0.66,0.138 0.318,0.132 0.546,0.36 l -0.354,0.444 q -0.192,-0.156 -0.396,-0.246 -0.204,-0.09 -0.456,-0.09 -0.282,0 -0.45,0.126 -0.168,0.12 -0.168,0.336 0,0.114 0.048,0.198 0.054,0.078 0.138,0.144 0.09,0.06 0.204,0.114 0.114,0.048 0.234,0.096 l 0.534,0.222 q 0.174,0.072 0.318,0.168 0.144,0.096 0.246,0.222 0.108,0.126 0.168,0.294 0.06,0.162 0.06,0.378 0,0.24 -0.096,0.45 -0.096,0.21 -0.282,0.372 -0.18,0.156 -0.444,0.252 -0.258,0.09 -0.588,0.09 z"
       style="font-weight:600;font-family:'Source Sans Pro';-inkscape-font-specification:'Source Sans Pro Semi-Bold'"
       id="path64047" />
    <path
       d="m 5.3451142,10.775536 h 0.738 l 0.552,1.974 q 0.096,0.336 0.168,0.636 0.078,0.3 0.18,0.642 h 0.024 q 0.102,-0.342 0.174,-0.642 0.078,-0.3 0.168,-0.636 l 0.546,-1.974 h 0.714 l -1.218,3.924 h -0.822 z"
       style="font-weight:600;font-family:'Source Sans Pro';-inkscape-font-specification:'Source Sans Pro Semi-Bold'"
       id="path64049" />
    <path
       d="m 10.667109,14.771536 q -0.396,0 -0.7380004,-0.132 -0.336,-0.132 -0.588,-0.39 -0.246,-0.258 -0.384,-0.636 -0.138,-0.378 -0.138,-0.864 0,-0.48 0.144,-0.858 0.144,-0.384 0.39,-0.648 0.252,-0.264 0.588,-0.402 0.3420004,-0.138 0.7320004,-0.138 0.42,0 0.708,0.156 0.294,0.15 0.48,0.342 l -0.372,0.45 q -0.15,-0.144 -0.336,-0.24 -0.18,-0.102 -0.456,-0.102 -0.264,0 -0.48,0.102 -0.21,0.096 -0.3660004,0.282 -0.15,0.18 -0.234,0.444 -0.084,0.264 -0.084,0.594 0,0.672 0.3,1.056 0.3060004,0.378 0.9000004,0.378 0.168,0 0.318,-0.042 0.15,-0.048 0.246,-0.132 v -0.846 h -0.744 v -0.57 h 1.368 v 1.728 q -0.198,0.198 -0.528,0.336 -0.324,0.132 -0.726,0.132 z"
       style="font-weight:600;font-family:'Source Sans Pro';-inkscape-font-specification:'Source Sans Pro Semi-Bold'"
       id="path64051" />
  </g>
  <g
     aria-label="HTM"
     id="text64074"
     style="font-size:6px;line-height:8px;letter-spacing:0px;word-spacing:0px;display:none;fill:#000000"
     inkscape:label="label:html">
    <path
       d="m 2.5971251,10.775536 h 0.696 v 1.578 h 1.59 v -1.578 h 0.696 v 3.924 h -0.696 v -1.74 h -1.59 v 1.74 h -0.696 z"
       style="font-weight:600;font-family:'Source Sans Pro';-inkscape-font-specification:'Source Sans Pro Semi-Bold'"
       id="path64422" />
    <path
       d="m 7.3671143,11.363536 h -1.134 v -0.588 h 2.964 v 0.588 h -1.134 v 3.336 h -0.696 z"
       style="font-weight:600;font-family:'Source Sans Pro';-inkscape-font-specification:'Source Sans Pro Semi-Bold'"
       id="path64424" />
    <path
       d="m 9.8511115,10.775536 h 0.7860005 l 0.696,1.92 q 0.066,0.186 0.126,0.384 0.06,0.192 0.126,0.384 h 0.024 q 0.066,-0.192 0.12,-0.384 0.06,-0.198 0.126,-0.384 l 0.678,-1.92 h 0.792 v 3.924 h -0.642 v -1.794 q 0,-0.138 0.006,-0.3 0.012,-0.162 0.024,-0.324 0.012,-0.168 0.03,-0.324 0.018,-0.162 0.03,-0.3 h -0.024 l -0.318,0.912 -0.642,1.764 h -0.414 l -0.648,-1.764 -0.312,-0.912 h -0.024 q 0.012,0.138 0.024,0.3 0.018,0.156 0.03,0.324 0.018,0.162 0.024,0.324 0.012,0.162 0.012,0.3 v 1.794 H 9.8511115 Z"
       style="font-weight:600;font-family:'Source Sans Pro';-inkscape-font-specification:'Source Sans Pro Semi-Bold'"
       id="path64426" />
  </g>
</svg>
