<?xml version="1.0" encoding="UTF-8" standalone="no"?>
<svg
   width="16"
   height="16"
   viewBox="0 0 16 16"
   fill="none"
   version="1.1"
   id="svg826"
   sodipodi:docname="document-colored-dark.svg"
   inkscape:version="1.1.1 (3bf5ae0d25, 2021-09-20)"
   xmlns:inkscape="http://www.inkscape.org/namespaces/inkscape"
   xmlns:sodipodi="http://sodipodi.sourceforge.net/DTD/sodipodi-0.dtd"
   xmlns="http://www.w3.org/2000/svg"
   xmlns:svg="http://www.w3.org/2000/svg">
  <defs
     id="defs830" />
  <sodipodi:namedview
     id="namedview828"
     pagecolor="#ffffff"
     bordercolor="#666666"
     borderopacity="1.0"
     inkscape:pageshadow="2"
     inkscape:pageopacity="0.0"
     inkscape:pagecheckerboard="0"
     showgrid="false"
     inkscape:zoom="21.4375"
     inkscape:cx="21.411079"
     inkscape:cy="8.7696793"
     inkscape:window-width="2560"
     inkscape:window-height="1017"
     inkscape:window-x="-8"
     inkscape:window-y="32"
     inkscape:window-maximized="1"
     inkscape:current-layer="text68442" />
  <path
     fill-rule="evenodd"
     clip-rule="evenodd"
     d="M4 1L3 2V14L4 15H13L14 14V5L13.7071 4.29289L10.7071 1.29289L10 1H4ZM4 14V2L9 2V6H13V14H4ZM13 5L10 2V5L13 5Z"
     fill="#C5C5C5"
     id="path824" />
  <path
     style="display:inline;fill:#c5ffc5;fill-opacity:1;stroke:none;stroke-width:1px;stroke-linecap:butt;stroke-linejoin:miter;stroke-opacity:1"
     d="m 4,2 v 12 h 9 V 6 H 9 V 2 Z"
     id="path64794"
     inkscape:label="inner-1" />
  <path
     style="fill:#c5ffc5;stroke:none;stroke-width:1px;stroke-linecap:butt;stroke-linejoin:miter;stroke-opacity:1;fill-opacity:1"
     d="M 13,5 10,2 v 3 z"
     id="path65258"
     inkscape:label="inner-2" />
  <path
     style="display:inline;fill:#000000;fill-opacity:0.2;stroke:none;stroke-width:1px;stroke-linecap:butt;stroke-linejoin:miter;stroke-opacity:1"
     d="M 13,6 H 9 V 2 l -1.1758417,0.00157 -0.00107,5.1811024 5.1904187,-0.00157 z"
     id="path65519"
     sodipodi:nodetypes="ccccccc"
     inkscape:label="shadow" />
  <g
     aria-label="+"
     id="text68442"
     style="font-size:9px;line-height:1.25;-inkscape-font-specification:sans-serif;letter-spacing:0px;word-spacing:0px;display:inline;fill:#000000">
    <path
       d="M 10.878321,9.0812357 9.2500416,10.709515 10.872106,12.33158 10.138759,13.064926 8.5166948,11.442862 6.8884152,13.071141 6.1488534,12.331579 7.7771329,10.7033 6.1550686,9.0812356 6.8884155,8.3478888 8.5104797,9.9699531 10.138759,8.3416739 Z"
       style="font-weight:bold;-inkscape-font-specification:'sans-serif Bold';text-align:center;text-anchor:middle;display:inline;opacity:0.182254"
       id="path95074"
       inkscape:label="modifier" />
  </g>
</svg>
